<svg width="24" height="24" viewBox="0 0 24 24" fill="none" xmlns="http://www.w3.org/2000/svg">
<path d="M8 18.8462C7.725 18.8462 7.48958 18.7483 7.29375 18.5524C7.09792 18.3566 7 18.1212 7 17.8462C7 17.5712 7.09792 17.3357 7.29375 17.1399C7.48958 16.9441 7.725 16.8462 8 16.8462C8.275 16.8462 8.51042 16.9441 8.70625 17.1399C8.90208 17.3357 9 17.5712 9 17.8462C9 18.1212 8.90208 18.3566 8.70625 18.5524C8.51042 18.7483 8.275 18.8462 8 18.8462ZM7.26923 15.0384V4.15385H8.73077V15.0384H7.26923Z" fill="black"/>
<path d="M12 18.6923C11.725 18.6923 11.4896 18.5944 11.2938 18.3986C11.0979 18.2027 11 17.9673 11 17.6923C11 17.4173 11.0979 17.1819 11.2938 16.9861C11.4896 16.7902 11.725 16.6923 12 16.6923C12.275 16.6923 12.5104 16.7902 12.7063 16.9861C12.9021 17.1819 13 17.4173 13 17.6923C13 17.9673 12.9021 18.2027 12.7063 18.3986C12.5104 18.5944 12.275 18.6923 12 18.6923ZM11.2692 14.8846V4H12.7308V14.8846H11.2692Z" fill="black"/>
<path d="M16 18.6923C15.725 18.6923 15.4896 18.5944 15.2938 18.3986C15.0979 18.2027 15 17.9673 15 17.6923C15 17.4173 15.0979 17.1819 15.2938 16.9861C15.4896 16.7902 15.725 16.6923 16 16.6923C16.275 16.6923 16.5104 16.7902 16.7063 16.9861C16.9021 17.1819 17 17.4173 17 17.6923C17 17.9673 16.9021 18.2027 16.7063 18.3986C16.5104 18.5944 16.275 18.6923 16 18.6923ZM15.2692 14.8846V4H16.7308V14.8846H15.2692Z" fill="black"/>
</svg>
