<svg width="24" height="24" viewBox="0 0 24 24" fill="none" xmlns="http://www.w3.org/2000/svg">
<path d="M10 18.8462C9.725 18.8462 9.48958 18.7483 9.29375 18.5524C9.09792 18.3566 9 18.1212 9 17.8462C9 17.5712 9.09792 17.3357 9.29375 17.1399C9.48958 16.9441 9.725 16.8462 10 16.8462C10.275 16.8462 10.5104 16.9441 10.7063 17.1399C10.9021 17.3357 11 17.5712 11 17.8462C11 18.1212 10.9021 18.3566 10.7063 18.5524C10.5104 18.7483 10.275 18.8462 10 18.8462ZM9.26923 15.0384V4.15385H10.7308V15.0384H9.26923Z" fill="black"/>
<path d="M14 18.6923C13.725 18.6923 13.4896 18.5944 13.2938 18.3986C13.0979 18.2027 13 17.9673 13 17.6923C13 17.4173 13.0979 17.1819 13.2938 16.9861C13.4896 16.7902 13.725 16.6923 14 16.6923C14.275 16.6923 14.5104 16.7902 14.7063 16.9861C14.9021 17.1819 15 17.4173 15 17.6923C15 17.9673 14.9021 18.2027 14.7063 18.3986C14.5104 18.5944 14.275 18.6923 14 18.6923ZM13.2692 14.8846V4H14.7308V14.8846H13.2692Z" fill="black"/>
</svg>
